# xmcd
#
# Track frame offsets:
#	150
#	12967
#	23292
#	35182
#	46487
#	56205
#	67322
#	78432
#	91642
#	101342
#	113377
#	124407
#	136880
#	150320
#	161252
#	173517
#	186487
#	195585
#	208567
#	217952
#	230157
#	240412
#
# Disc length: 3354
#
# Revision: 1
# Processed by: cddbd v1.5.1PL0 Copyright (c) Steve Scherf et al.
# Submitted via: CDex 1.51
# Normalized: r0:TDELIM( - ),TSWAP
#
DISCID=1d0d1816
DTITLE=Soul Brother Soul Sister - Original Artists
DYEAR=1998
DGENRE=Blues
TTITLE0=Chalres Brown - Big legged Woman
TTITLE1=Jerry Butler - I am telling you
TTITLE2=Donnie Elbert - A little piece of leather
TTITLE3=Eddie Floyd - Set my Soul on fire
TTITLE4=Wilson Pickett - Baby don't weep
TTITLE5=Percy Sledge - My adorable one
TTITLE6=Joe Turner - Morning Glory
TTITLE7=Ray Charles - Alone in the City
TTITLE8=Baby Washington - The bells
TTITLE9=Aaron Neville - Tell it like it is
TTITLE10=Irma Thomas - Set me free
TTITLE11=Joe Stubbs - What's my destiny
TTITLE12=Dee Edwards - A little every day
TTITLE13=Ed Robinson - Hey Blackman
TTITLE14=The Spaniels - Will you love me when I'm old
TTITLE15=Lloyd Price - Just because
TTITLE16=Gladys Knight and the Pips - Every beat of my heart
TTITLE17=Esther Phillips - I'd fight the world
TTITLE18=Etta James - Good rocking' Daddy
TTITLE19=Jimmy Rushing - Somebody's spoiling these women
TTITLE20=The Platters - You make me cry
TTITLE21=Mack Rice - My baby
EXTD=YEAR: 1998
EXTT0=
EXTT1=
EXTT2=
EXTT3=
EXTT4=
EXTT5=
EXTT6=
EXTT7=
EXTT8=
EXTT9=
EXTT10=
EXTT11=
EXTT12=
EXTT13=
EXTT14=
EXTT15=
EXTT16=
EXTT17=
EXTT18=
EXTT19=
EXTT20=
EXTT21=
PLAYORDER=
